<?xml version="1.0" standalone="no"?>
<!DOCTYPE svg PUBLIC "-//W3C//DTD SVG 20010904//EN"
 "http://www.w3.org/TR/2001/REC-SVG-20010904/DTD/svg10.dtd">
<svg version="1.0" xmlns="http://www.w3.org/2000/svg"
 width="974.000000pt" height="325.000000pt" viewBox="0 0 974.000000 325.000000"
 preserveAspectRatio="xMidYMid meet">

<g transform="translate(0.000000,325.000000) scale(0.100000,-0.100000)"
fill="#000000" stroke="none">
<path d="M2292 3184 c-106 -53 -192 -162 -235 -299 -23 -73 -44 -185 -34 -185
2 0 12 33 22 72 45 188 136 290 281 318 248 48 483 -213 437 -485 -16 -91 -48
-149 -128 -229 -38 -39 -61 -64 -50 -56 110 82 198 172 234 239 61 114 63 267
5 387 -38 78 -150 190 -229 229 -50 24 -75 29 -155 33 -87 3 -99 1 -148 -24z"/>
<path d="M2327 3029 c-153 -36 -236 -193 -252 -479 -10 -181 -29 -270 -95
-445 -42 -110 -139 -340 -195 -460 -19 -42 -35 -79 -35 -81 0 -13 -252 -514
-308 -614 -229 -405 -449 -605 -697 -634 -265 -31 -531 225 -604 582 -14 69
-14 233 0 306 13 60 76 197 95 203 9 3 66 -113 86 -177 3 -8 8 17 12 55 25
267 69 477 130 617 20 45 34 83 33 85 -8 7 -174 -169 -229 -241 -78 -105 -179
-313 -215 -441 -24 -88 -27 -118 -28 -250 0 -155 4 -180 52 -325 73 -220 250
-429 429 -505 215 -92 488 -72 696 50 204 120 282 234 618 910 213 427 337
666 422 810 134 226 143 239 315 393 122 110 148 160 148 287 0 77 -4 99 -28
149 -41 89 -88 141 -160 175 -70 33 -134 44 -190 30z m151 -143 c71 -37 105
-105 100 -201 -5 -110 -33 -148 -193 -262 -71 -51 -133 -93 -137 -93 -15 0 -9
315 8 387 18 81 55 147 92 167 35 19 95 20 130 2z"/>
<path d="M2363 2818 c-41 -46 -66 -164 -61 -290 l3 -88 81 58 c94 66 124 104
131 166 8 66 -4 112 -38 146 -38 38 -86 41 -116 8z"/>
<path d="M890 2353 c-55 -18 -169 -76 -251 -130 -100 -65 -230 -184 -315 -288
-44 -54 -39 -51 51 35 55 53 129 116 165 141 76 54 199 123 206 117 2 -3 -7
-20 -20 -39 -151 -210 -227 -343 -264 -459 -46 -148 -56 -250 -12 -129 41 113
155 333 233 450 105 157 104 156 170 232 60 68 65 78 37 70z"/>
<path d="M7790 1749 c-62 -25 -100 -85 -100 -159 0 -43 5 -55 34 -87 30 -33
39 -37 92 -40 77 -5 129 23 162 87 26 51 28 87 8 135 -27 64 -120 94 -196 64z"/>
<path d="M4225 1718 c-18 -75 -265 -1249 -265 -1258 0 -7 43 -10 132 -8 l132
3 132 620 c73 341 133 630 133 643 1 22 -1 22 -129 22 -126 0 -130 -1 -135
-22z"/>
<path d="M9045 1728 c-7 -23 -265 -1251 -265 -1265 0 -11 26 -13 132 -11 l131
3 58 265 c31 146 61 277 67 291 53 136 237 143 267 11 4 -19 -14 -123 -50
-289 -30 -143 -55 -265 -55 -271 0 -9 38 -12 129 -12 115 0 130 2 135 18 3 9
30 133 61 276 73 341 73 410 3 513 -75 111 -284 132 -400 41 -21 -16 -38 -24
-38 -19 0 6 20 105 45 221 25 116 45 217 45 225 0 12 -22 15 -130 15 -96 0
-132 -3 -135 -12z"/>
<path d="M3150 1706 c0 -2 -58 -281 -130 -619 -71 -337 -130 -619 -130 -625 0
-16 527 -16 620 -1 93 15 177 58 239 124 70 73 93 129 99 232 4 74 2 88 -21
136 -28 57 -65 97 -111 120 l-28 15 45 20 c59 26 126 94 158 157 21 43 24 64
24 150 0 78 -4 108 -19 135 -30 57 -87 109 -146 132 -51 21 -74 23 -327 26
-150 2 -273 1 -273 -2z m434 -241 c42 -20 58 -48 58 -101 0 -82 -50 -137 -141
-154 -78 -14 -181 -13 -181 3 0 6 12 69 27 140 l26 127 90 0 c58 0 100 -5 121
-15z m-67 -508 c101 -54 77 -203 -42 -258 -55 -25 -265 -28 -265 -3 0 12 30
156 55 263 6 23 7 23 113 19 76 -3 116 -9 139 -21z"/>
<path d="M6740 1706 c0 -3 -58 -281 -130 -619 -71 -337 -130 -619 -130 -626 0
-8 36 -11 138 -9 l137 3 49 233 50 232 233 0 c128 0 233 3 233 6 0 3 11 55 25
116 14 61 25 117 25 124 0 11 -42 14 -231 14 l-231 0 6 33 c3 17 16 78 27 135
l22 102 266 0 267 0 23 118 c13 64 26 123 29 130 3 9 -81 12 -402 12 -223 0
-406 -2 -406 -4z"/>
<path d="M5881 1345 c-79 -22 -146 -62 -206 -123 -106 -105 -148 -212 -148
-377 -1 -91 3 -120 22 -168 32 -81 114 -168 199 -209 60 -30 77 -33 169 -36
126 -5 213 18 288 75 50 39 115 115 115 136 0 7 -45 32 -99 56 l-99 43 -37
-40 c-43 -48 -112 -68 -179 -53 -70 17 -136 85 -136 142 l0 29 133 0 c74 0
208 3 300 7 l166 6 11 69 c14 82 7 160 -23 238 -28 77 -112 159 -192 189 -79
30 -210 37 -284 16z m160 -205 c46 -13 88 -58 96 -103 l6 -37 -177 0 -176 0
19 38 c46 89 136 129 232 102z"/>
<path d="M8282 1345 c-122 -34 -214 -130 -228 -239 -20 -143 51 -241 227 -312
97 -39 125 -73 107 -125 -17 -50 -97 -65 -155 -29 -25 15 -36 31 -45 66 -11
41 -15 45 -38 41 -14 -3 -63 -11 -109 -18 l-83 -13 6 -45 c14 -103 98 -196
203 -227 82 -24 251 -16 315 15 211 102 235 368 46 487 -21 13 -73 38 -115 55
-43 17 -86 38 -95 46 -26 24 -22 69 8 100 22 22 32 25 77 20 56 -5 84 -28 94
-79 l6 -29 61 7 c33 4 84 10 111 13 l50 6 -3 35 c-14 139 -128 229 -300 236
-57 3 -105 -1 -140 -11z"/>
<path d="M4630 1325 c0 -2 -25 -122 -56 -266 -66 -314 -70 -339 -54 -412 16
-78 62 -142 130 -181 50 -28 63 -31 145 -31 99 0 134 12 191 67 l31 29 -1 -38
-1 -38 127 -3 127 -3 6 48 c4 38 140 717 162 811 5 22 5 22 -128 22 l-134 0
-58 -267 c-32 -148 -67 -287 -79 -311 -27 -57 -68 -82 -133 -82 -74 1 -115 41
-115 114 0 29 88 465 106 529 5 16 -6 17 -130 17 -75 0 -136 -2 -136 -5z"/>
<path d="M7561 898 c-50 -238 -91 -437 -91 -441 0 -4 59 -6 132 -5 l132 3 87
405 c47 223 89 420 93 438 l8 32 -135 0 -134 0 -92 -432z"/>
<path d="M1746 898 c-228 -452 -351 -603 -581 -710 -125 -59 -220 -80 -360
-81 -147 0 -224 17 -355 81 -81 40 -109 60 -190 142 -58 57 -113 124 -139 168
-24 40 -46 71 -48 68 -3 -3 17 -47 43 -98 85 -162 260 -318 434 -386 115 -45
175 -54 324 -50 130 4 148 7 222 37 243 95 428 306 620 706 66 138 136 306
130 312 -2 2 -47 -83 -100 -189z"/>
<path d="M50 615 c0 -5 5 -17 10 -25 5 -8 10 -10 10 -5 0 6 -5 17 -10 25 -5 8
-10 11 -10 5z"/>
<path d="M3960 334 c-11 -12 -10 -18 3 -32 16 -15 18 -15 33 0 19 18 12 48 -9
48 -8 0 -20 -7 -27 -16z"/>
<path d="M4231 243 c-12 -60 -25 -118 -28 -131 -4 -18 -1 -22 20 -22 28 0 26
-3 57 147 25 118 25 113 -3 113 -22 0 -25 -8 -46 -107z"/>
<path d="M5370 334 c-11 -12 -10 -18 3 -32 16 -15 18 -15 33 0 19 18 12 48 -9
48 -8 0 -20 -7 -27 -16z"/>
<path d="M5651 243 c-12 -60 -25 -118 -28 -131 -4 -18 -1 -22 20 -22 28 0 26
-3 57 147 25 118 25 113 -3 113 -22 0 -25 -8 -46 -107z"/>
<path d="M6164 305 c-6 -46 -18 -63 -29 -45 -3 5 -18 10 -33 10 -77 0 -117
-103 -64 -162 17 -21 62 -24 80 -6 9 9 12 9 12 0 0 -7 9 -12 20 -12 11 0 20 2
20 5 0 3 11 57 25 121 14 64 25 120 25 125 0 5 -11 9 -24 9 -22 0 -26 -6 -32
-45z m-26 -113 c4 -25 -23 -62 -44 -62 -22 0 -35 36 -24 65 13 35 63 33 68 -3z"/>
<path d="M7131 233 c-13 -65 -26 -124 -29 -131 -3 -7 5 -12 22 -12 20 0 27 6
32 27 18 81 26 101 40 107 28 11 37 -5 31 -53 -3 -25 -9 -54 -12 -63 -6 -14
-2 -18 18 -18 27 0 29 4 47 84 9 40 8 53 -6 73 -13 21 -22 24 -50 20 -37 -6
-40 -2 -25 51 9 30 8 32 -17 32 -27 0 -28 -2 -51 -117z"/>
<path d="M2899 215 l-26 -126 26 3 c23 3 27 9 40 76 7 39 17 72 21 72 4 0 13
-34 20 -75 11 -66 15 -75 34 -75 16 0 33 20 69 80 27 44 50 80 52 80 1 0 -5
-36 -14 -80 l-18 -80 26 0 c26 0 27 4 52 126 l26 125 -41 -3 c-39 -3 -42 -5
-86 -80 -24 -43 -47 -78 -51 -78 -3 0 -12 35 -20 78 l-14 77 -35 3 -35 3 -26
-126z"/>
<path d="M3673 328 c-35 -45 -7 -53 42 -13 l30 25 -31 0 c-17 0 -36 -6 -41
-12z"/>
<path d="M6790 315 c-22 -24 -22 -25 -4 -25 11 0 25 5 32 12 8 8 15 8 26 -1 8
-7 22 -11 31 -9 14 3 14 5 0 26 -21 29 -56 28 -85 -3z"/>
<path d="M3476 296 c-3 -13 -15 -26 -26 -29 -23 -6 -28 -47 -6 -47 11 0 12 -9
4 -44 -12 -55 2 -86 38 -86 30 0 43 26 21 43 -19 15 -11 76 12 85 32 11 43 52
15 52 -12 0 -15 6 -10 25 5 21 3 25 -18 25 -17 0 -26 -7 -30 -24z"/>
<path d="M4646 296 c-3 -13 -15 -26 -26 -29 -23 -6 -28 -47 -6 -47 11 0 12 -9
4 -44 -12 -55 2 -86 38 -86 30 0 43 26 21 43 -19 15 -11 76 12 85 32 11 43 52
15 52 -12 0 -15 6 -10 25 5 21 3 25 -18 25 -17 0 -26 -7 -30 -24z"/>
<path d="M5236 296 c-3 -13 -15 -26 -26 -29 -23 -6 -28 -47 -6 -47 11 0 12 -9
4 -44 -12 -55 2 -86 38 -86 30 0 43 26 21 43 -19 15 -11 76 12 85 32 11 43 52
15 52 -12 0 -15 6 -10 25 5 21 3 25 -18 25 -17 0 -26 -7 -30 -24z"/>
<path d="M3253 255 c-44 -31 -52 -106 -15 -147 17 -21 62 -24 80 -6 9 9 12 9
12 0 0 -7 9 -12 19 -12 15 0 22 14 35 71 21 94 21 109 -4 109 -11 0 -20 -5
-20 -10 0 -7 -6 -7 -19 0 -28 14 -63 12 -88 -5z m85 -63 c4 -25 -23 -62 -44
-62 -22 0 -35 36 -24 65 13 35 63 33 68 -3z"/>
<path d="M3614 258 c-50 -24 -66 -116 -25 -149 31 -25 92 -25 115 0 17 19 17
20 -3 30 -13 7 -22 8 -26 1 -15 -25 -65 -5 -65 26 0 2 27 4 60 4 61 0 64 2 61
45 -4 45 -67 68 -117 43z m74 -45 c2 -9 -8 -13 -32 -13 -34 0 -44 8 -29 24 11
11 56 2 61 -11z"/>
<path d="M3796 258 c-2 -7 -9 -40 -16 -73 -6 -33 -14 -68 -16 -77 -4 -14 1
-18 20 -18 20 0 27 6 32 27 17 78 26 94 55 100 22 4 29 11 29 29 0 26 -11 30
-41 14 -13 -7 -19 -7 -19 0 0 14 -40 12 -44 -2z"/>
<path d="M3945 258 c-5 -16 -35 -155 -35 -162 0 -4 11 -6 24 -6 22 0 26 7 40
69 21 94 21 111 -4 111 -11 0 -22 -6 -25 -12z"/>
<path d="M4064 258 c-50 -24 -66 -116 -25 -149 31 -25 92 -25 115 0 17 19 17
20 -3 30 -13 7 -22 8 -26 1 -15 -25 -65 -5 -65 26 0 2 27 4 60 4 61 0 64 2 61
45 -4 45 -67 68 -117 43z m74 -45 c2 -9 -8 -13 -32 -13 -34 0 -44 8 -29 24 11
11 56 2 61 -11z"/>
<path d="M4454 258 c-50 -24 -66 -116 -25 -149 31 -25 92 -25 115 0 17 19 17
20 -3 30 -13 7 -22 8 -26 1 -15 -25 -65 -5 -65 26 0 2 27 4 60 4 61 0 64 2 61
45 -4 45 -67 68 -117 43z m74 -45 c2 -9 -8 -13 -32 -13 -34 0 -44 8 -29 24 11
11 56 2 61 -11z"/>
<path d="M4873 255 c-44 -31 -52 -106 -15 -147 17 -21 62 -24 80 -6 9 9 12 9
12 0 0 -7 9 -12 19 -12 15 0 22 14 35 71 21 94 21 109 -4 109 -11 0 -20 -5
-20 -10 0 -7 -6 -7 -19 0 -28 14 -63 12 -88 -5z m85 -63 c4 -25 -23 -62 -44
-62 -22 0 -35 36 -24 65 13 35 63 33 68 -3z"/>
<path d="M5066 258 c-2 -7 -9 -40 -16 -73 -6 -33 -14 -68 -16 -77 -4 -14 1
-18 20 -18 20 0 27 6 32 27 17 78 26 94 55 100 22 4 29 11 29 29 0 26 -11 30
-41 14 -13 -7 -19 -7 -19 0 0 14 -40 12 -44 -2z"/>
<path d="M5355 258 c-5 -16 -35 -155 -35 -162 0 -4 11 -6 24 -6 22 0 26 7 40
69 21 94 21 111 -4 111 -11 0 -22 -6 -25 -12z"/>
<path d="M5468 241 c-27 -24 -33 -36 -33 -71 0 -32 6 -47 24 -61 34 -28 92
-25 120 5 l23 24 -22 7 c-11 4 -27 1 -35 -5 -34 -28 -77 19 -55 60 11 21 65
29 72 10 3 -10 48 -2 48 9 0 4 -9 17 -20 29 -30 32 -82 29 -122 -7z"/>
<path d="M5774 258 c-50 -24 -66 -116 -25 -149 31 -25 92 -25 115 0 17 19 17
20 -3 30 -13 7 -22 8 -26 1 -15 -25 -65 -5 -65 26 0 2 27 4 60 4 61 0 64 2 61
45 -4 45 -67 68 -117 43z m74 -45 c2 -9 -8 -13 -32 -13 -34 0 -44 8 -29 24 11
11 56 2 61 -11z"/>
<path d="M6274 258 c-50 -24 -66 -116 -25 -149 31 -25 92 -25 115 0 17 19 17
20 -3 30 -13 7 -22 8 -26 1 -15 -25 -65 -5 -65 26 0 2 27 4 60 4 61 0 64 2 61
45 -4 45 -67 68 -117 43z m74 -45 c2 -9 -8 -13 -32 -13 -34 0 -44 8 -29 24 11
11 56 2 61 -11z"/>
<path d="M6513 157 c-28 -139 -28 -139 -1 -135 17 2 25 13 33 48 7 28 14 40
19 32 13 -21 75 -14 101 12 33 33 42 89 21 122 -22 33 -42 40 -77 27 -16 -7
-29 -7 -29 -2 0 5 -10 9 -22 9 -21 0 -25 -9 -45 -113z m121 57 c9 -8 16 -19
16 -24 0 -34 -36 -65 -64 -54 -31 12 -10 94 24 94 5 0 16 -7 24 -16z"/>
<path d="M6774 258 c-50 -24 -66 -116 -25 -149 31 -25 92 -25 115 0 17 19 17
20 -3 30 -13 7 -22 8 -26 1 -15 -25 -65 -5 -65 26 0 2 27 4 60 4 61 0 64 2 61
45 -4 45 -67 68 -117 43z m74 -45 c2 -9 -8 -13 -32 -13 -34 0 -44 8 -29 24 11
11 56 2 61 -11z"/>
<path d="M6948 241 c-27 -24 -33 -36 -33 -71 0 -32 6 -47 24 -61 34 -28 92
-25 120 5 l23 24 -22 7 c-11 4 -27 1 -35 -5 -34 -28 -77 19 -55 60 11 21 65
29 72 10 3 -10 48 -2 48 9 0 4 -9 17 -20 29 -30 32 -82 29 -122 -7z"/>
<path d="M7374 258 c-50 -24 -66 -116 -25 -149 31 -25 92 -25 115 0 17 19 17
20 -3 30 -13 7 -22 8 -26 1 -15 -25 -65 -5 -65 26 0 2 27 4 60 4 61 0 64 2 61
45 -4 45 -67 68 -117 43z m74 -45 c2 -9 -8 -13 -32 -13 -34 0 -44 8 -29 24 11
11 56 2 61 -11z"/>
</g>
</svg>
